<svg width="33" height="34" viewBox="0 0 33 34" fill="none" xmlns="http://www.w3.org/2000/svg">
<path d="M23.4252 0H9.59128C3.58228 0 0 3.689 0 9.877V24.106C0 30.311 3.58228 34 9.59128 34H23.4087C29.4177 34 32.9999 30.311 32.9999 24.123V9.877C33.0165 3.689 29.4342 0 23.4252 0ZM20.8994 19.941L18.7864 21.199L16.6733 22.457C13.9495 24.072 11.7208 22.746 11.7208 19.516V17V14.484C11.7208 11.237 13.9495 9.928 16.6733 11.543L18.7864 12.801L20.8994 14.059C23.6233 15.674 23.6233 18.326 20.8994 19.941Z" fill="#350002"/>
</svg>
